<?xml version="1.0" standalone="no"?>
<!DOCTYPE svg PUBLIC "-//W3C//DTD SVG 20010904//EN"
 "http://www.w3.org/TR/2001/REC-SVG-20010904/DTD/svg10.dtd">
<svg version="1.0" xmlns="http://www.w3.org/2000/svg"
 width="400.000000pt" height="210.000000pt" viewBox="0 0 400.000000 210.000000"
 preserveAspectRatio="xMidYMid meet">
<metadata>
Created by potrace 1.16, written by Peter Selinger 2001-2019
</metadata>
<g transform="translate(0.000000,210.000000) scale(0.100000,-0.100000)"
fill="#000000" stroke="none">
<path d="M1130 1890 c-46 -11 -50 -37 -45 -280 4 -224 -4 -300 -29 -300 -7 0
-44 48 -82 107 -38 59 -88 129 -112 157 -23 27 -60 80 -83 118 -49 81 -159
188 -193 188 -30 0 -76 -36 -76 -60 0 -25 56 -130 114 -211 25 -37 62 -100 82
-140 20 -41 46 -87 58 -104 40 -53 78 -124 72 -134 -4 -5 -21 -5 -43 0 -90 20
-149 7 -186 -43 l-20 -26 32 -101 c26 -81 30 -105 21 -121 -18 -34 -2 -76 53
-142 79 -95 143 -154 193 -179 l46 -22 30 23 c28 21 31 21 63 6 18 -9 44 -16
57 -16 36 0 62 -23 137 -123 38 -51 88 -116 111 -144 36 -47 41 -60 45 -119 7
-100 46 -154 148 -198 l58 -26 886 0 c867 0 886 0 869 19 -9 10 -38 24 -64 31
-69 19 -180 68 -203 91 -24 24 -24 36 1 44 11 3 20 11 20 16 0 12 -14 11 -27
-2 -6 -6 -16 -10 -23 -7 -6 2 0 14 16 28 15 14 24 19 20 12 -4 -6 -2 -12 4
-12 7 0 9 8 5 20 -9 29 32 127 72 172 42 48 93 150 93 185 0 14 -9 37 -21 49
-19 20 -19 26 -9 108 10 75 10 93 -6 143 -20 67 -46 116 -83 156 -20 22 -33
28 -61 25 -31 -2 -35 0 -34 20 1 27 -32 38 -73 25 -16 -5 -46 -6 -68 -2 -22 4
-54 5 -71 2 -18 -2 -42 1 -54 7 -19 10 -27 9 -49 -7 -14 -10 -47 -27 -74 -37
-28 -10 -57 -31 -71 -49 -24 -32 -80 -143 -82 -162 0 -5 -4 -17 -7 -25 -3 -8
-8 -39 -12 -68 -8 -69 -13 -82 -42 -93 -34 -13 -38 -34 -19 -98 22 -70 69
-144 100 -159 22 -10 24 -18 28 -94 5 -93 -6 -114 -52 -103 -106 25 -122 26
-141 9 -16 -15 -25 -15 -57 -6 -20 6 -46 13 -56 14 -11 2 -38 30 -61 63 -39
58 -43 61 -128 89 -79 27 -87 32 -97 62 -13 37 -77 100 -124 119 -17 7 -65 18
-106 24 -41 7 -78 15 -81 19 -4 4 -34 39 -68 79 -33 39 -69 74 -80 78 -10 3
-27 22 -36 43 -10 20 -24 51 -32 67 -27 54 -44 109 -68 220 -13 61 -31 127
-39 147 -11 25 -16 68 -16 128 0 50 -6 119 -14 153 -8 34 -19 104 -25 155 -16
149 -58 210 -131 192z"/>
</g>
</svg>
