<?xml version="1.0" standalone="no"?>
<!DOCTYPE svg PUBLIC "-//W3C//DTD SVG 20010904//EN"
 "http://www.w3.org/TR/2001/REC-SVG-20010904/DTD/svg10.dtd">
<svg version="1.0" xmlns="http://www.w3.org/2000/svg"
 width="827.000000pt" height="1174.000000pt" viewBox="0 0 827.000000 1174.000000"
 preserveAspectRatio="xMidYMid meet">
<metadata>
Created by potrace 1.16, written by Peter Selinger 2001-2019
</metadata>
<g transform="translate(0.000000,1174.000000) scale(0.100000,-0.100000)"
fill="#000000" stroke="none">
<path d="M1698 10800 c-184 -32 -316 -121 -381 -258 l-32 -67 -3 -332 c-3
-305 -5 -333 -20 -333 -78 0 -203 -94 -243 -182 -23 -52 -24 -61 -27 -369 l-3
-317 -37 -6 c-61 -9 -142 -65 -193 -133 -49 -64 -75 -124 -112 -253 l-22 -75
-3 -2918 c-2 -3181 -5 -3010 54 -3197 97 -308 304 -518 629 -639 l70 -26 785
-5 785 -5 50 -23 c165 -76 270 -221 355 -492 48 -151 91 -251 142 -331 88
-137 218 -242 352 -285 81 -26 81 -26 331 -20 916 24 1590 120 2178 312 625
204 1091 527 1271 879 l36 70 0 3603 c0 2465 -3 3633 -11 3700 -14 132 -43
271 -79 384 -43 131 -146 336 -226 448 -81 114 -267 302 -384 391 -277 209
-633 366 -1048 461 l-97 23 -2035 1 c-1119 1 -2056 -2 -2082 -6z m450 -527 c1
-300 -1 -453 -8 -454 -5 -1 -19 -1 -30 -1 -11 0 -185 0 -386 1 l-365 1 3 313
c3 269 6 318 22 359 24 65 83 129 153 165 109 58 191 71 438 69 l170 -1 3
-452z m852 4 c0 -250 -2 -456 -4 -458 -2 -2 -176 -3 -385 -1 l-381 2 0 455 0
455 385 0 385 0 0 -453z m505 445 l345 -2 0 -450 0 -450 -376 -2 c-207 -2
-378 -1 -380 1 -6 6 -5 897 1 903 3 3 19 4 35 3 17 -1 185 -2 375 -3z m1033
-452 l-3 -450 -300 -1 -300 -1 -3 451 -2 451 305 0 305 0 -2 -450z m1137 433
c-34 -92 -422 -883 -434 -885 -8 -2 -149 -2 -313 0 l-298 3 0 449 0 450 526 0
c497 0 526 -1 519 -17z m310 -28 c224 -54 477 -148 644 -242 l65 -36 -30 -26
c-158 -139 -897 -785 -923 -806 -29 -25 -34 -27 -42 -13 -26 47 -97 124 -150
163 -56 41 -151 85 -184 85 -8 0 -15 5 -15 11 0 10 333 714 406 861 28 55 8
55 229 3z m850 -367 c218 -152 440 -390 533 -573 l20 -41 -708 -213 c-389
-117 -742 -223 -783 -236 l-75 -23 -16 65 c-9 35 -25 87 -36 116 l-20 52 28
27 c40 40 986 868 992 868 2 0 31 -19 65 -42z m-1403 -621 c170 -84 279 -276
317 -560 6 -43 11 -101 11 -128 l0 -49 -2346 0 -2345 0 3 303 3 302 28 51 c16
29 42 61 59 74 70 51 -47 49 2149 47 l2045 -2 76 -38z m2028 -148 c59 -153 95
-318 108 -488 l8 -101 -863 0 -862 0 -6 58 c-3 31 -7 74 -9 95 -4 31 -1 38 17
43 12 3 369 110 792 238 424 129 773 234 777 235 3 0 21 -35 38 -80z m120
-4198 l0 -3520 -34 -65 c-99 -190 -304 -383 -583 -550 -602 -361 -1634 -577
-2768 -580 l-320 -1 -68 33 c-37 19 -95 59 -128 90 -112 103 -177 221 -249
452 -94 301 -232 476 -435 552 -60 23 -61 23 -840 28 l-780 5 -65 24 c-139 51
-256 128 -359 236 -143 151 -219 335 -242 585 -6 76 -9 1079 -7 2965 l3 2850
27 96 c45 163 104 254 192 295 l51 24 3303 0 3302 0 0 -3519z"/>
<path d="M1660 8738 c-346 -36 -578 -196 -623 -430 -9 -49 -11 -692 -7 -2803
l6 -2740 23 -80 c74 -259 236 -436 479 -525 91 -33 222 -60 293 -60 26 0 51
-5 54 -10 4 -7 13 -6 26 1 14 7 193 9 582 6 626 -4 627 -4 759 -74 86 -45 193
-157 262 -274 28 -46 83 -155 123 -242 39 -87 93 -189 117 -226 59 -88 170
-193 246 -231 116 -59 131 -60 630 -60 250 0 506 5 569 11 348 32 586 170 689
399 54 121 51 -61 52 3585 0 2413 -3 3398 -11 3440 -22 121 -95 222 -199 275
-101 51 -33 50 -2080 48 -1048 0 -1943 -5 -1990 -10z m3982 -98 c79 -24 146
-80 180 -148 l23 -47 2 -590 3 -590 -87 -90 c-48 -49 -317 -324 -599 -610
-281 -286 -558 -568 -614 -627 l-103 -108 -288 0 -289 0 0 155 0 155 368 0
368 0 52 26 c93 46 142 127 142 234 0 43 -7 79 -20 109 -19 40 -20 65 -20 340
0 279 2 300 22 361 19 56 22 86 22 220 0 143 -2 162 -28 240 -16 47 -41 113
-57 148 -105 232 -329 454 -583 577 -224 108 -362 138 -631 139 -212 1 -308
-12 -480 -65 -207 -64 -298 -139 -326 -267 -28 -132 75 -269 217 -289 56 -7
74 -24 74 -67 0 -38 -12 -51 -57 -61 -19 -3 -47 -23 -67 -45 -64 -71 -66 -88
-66 -619 l0 -476 -49 -42 c-66 -57 -95 -119 -95 -203 1 -36 8 -81 16 -101 23
-53 82 -114 133 -138 43 -20 59 -21 460 -21 l415 0 0 -155 0 -155 -1285 0
-1285 0 2 1238 3 1237 32 66 c75 151 241 246 486 278 34 5 936 9 2003 10 1914
1 1943 1 2006 -19z m208 -2490 l0 -979 -47 -33 c-153 -105 -377 -238 -403
-238 -23 0 -108 40 -177 83 -21 13 -63 34 -93 48 -53 23 -62 24 -270 22 -118
-1 -379 -9 -580 -17 -201 -9 -375 -16 -387 -16 l-23 0 0 304 0 303 42 7 c24 4
137 6 252 5 l210 -1 201 203 c812 827 1269 1289 1272 1289 2 0 3 -441 3 -980z
m-2170 -430 c0 -24 -5 -31 -27 -35 -16 -4 -77 -21 -138 -40 -128 -40 -243
-104 -301 -167 -44 -47 -216 -304 -252 -374 l-21 -41 -89 -11 c-53 -6 -108
-20 -134 -32 -131 -66 -226 -258 -244 -496 l-7 -81 -86 -45 c-47 -25 -349
-184 -671 -353 -322 -169 -588 -309 -592 -312 -5 -2 -8 451 -8 1006 l0 1011
1285 0 1285 0 0 -30z m-8 -414 c3 -288 3 -295 -17 -300 -11 -3 -30 -6 -42 -6
-13 0 -30 -11 -40 -27 -16 -25 -18 -53 -15 -313 3 -299 -1 -331 -41 -338 -50
-10 -188 120 -365 342 -205 257 -205 278 -3 583 115 173 162 220 276 275 72
34 192 74 232 77 10 1 13 -69 15 -293z m2162 -3805 c-65 -224 -266 -368 -574
-411 -44 -6 -260 -10 -519 -10 -244 0 -449 -4 -455 -8 -19 -15 -172 14 -230
42 -77 38 -147 97 -202 169 -25 34 -97 166 -159 292 -159 325 -260 453 -420
530 -139 67 -144 68 -732 74 l-533 6 473 419 472 419 6 -79 c8 -96 25 -139 72
-181 102 -90 256 -60 317 62 14 28 25 51 26 53 0 1 16 -5 34 -14 78 -39 165
-27 231 33 l39 35 0 -310 0 -311 24 -28 c33 -38 95 -39 131 -2 l25 25 1 301
c0 322 -1 315 52 328 29 8 86 56 104 89 10 18 12 18 44 -5 29 -20 46 -24 110
-24 66 0 81 3 116 28 22 15 50 46 64 70 23 40 24 52 27 240 2 108 5 197 7 197
2 0 102 -45 222 -99 l218 -99 60 9 c77 13 132 44 169 96 24 35 30 54 34 118
l5 76 52 34 c95 60 138 137 138 243 0 59 3 72 16 72 26 0 115 46 138 71 40 44
64 114 65 192 l2 72 47 43 c137 123 130 297 -16 430 l-54 49 182 114 182 114
3 -1755 c2 -1580 0 -1760 -14 -1809z m-2924 3427 c1 -62 38 -144 106 -232 32
-42 72 -93 87 -114 68 -89 205 -237 259 -278 123 -95 220 -93 266 4 15 33 17
69 15 319 l-3 283 23 5 c62 13 1206 59 1320 53 80 -5 87 -7 256 -94 127 -65
190 -103 232 -142 86 -79 116 -156 89 -226 -11 -30 -88 -116 -103 -116 -5 0
-75 37 -156 82 -232 130 -307 168 -330 168 -24 0 -43 -37 -31 -59 7 -13 124
-81 389 -223 l93 -51 -4 -74 c-7 -103 -51 -159 -135 -170 -45 -6 -47 -5 -388
184 -82 46 -157 83 -166 83 -23 0 -41 -25 -37 -51 2 -18 53 -50 248 -157 135
-74 247 -136 249 -138 8 -8 13 -96 7 -130 -8 -42 -89 -129 -129 -139 -19 -5
-65 16 -203 91 -299 164 -291 160 -311 148 -11 -7 -18 -23 -18 -40 0 -27 13
-35 225 -151 124 -68 231 -131 238 -140 18 -24 15 -83 -6 -123 -20 -39 -89
-80 -133 -80 -15 0 -129 46 -252 102 l-225 101 -4 142 c-3 135 -4 143 -31 183
-75 113 -243 122 -335 17 l-34 -38 -41 23 c-54 31 -136 31 -193 2 -39 -20 -87
-67 -96 -93 -3 -9 -11 -8 -29 4 -41 27 -109 39 -157 29 -79 -18 -117 -55 -169
-160 0 -2 -16 4 -35 14 -71 37 -187 14 -245 -48 -49 -52 -53 -80 -53 -343 l0
-246 -33 -14 c-19 -8 -103 -76 -188 -152 -85 -76 -228 -203 -319 -283 -91 -80
-167 -148 -170 -151 -3 -3 -87 -79 -188 -168 l-183 -162 -52 6 c-234 27 -382
90 -508 215 -59 58 -85 95 -117 160 -80 163 -92 255 -92 730 l0 345 113 59
c61 32 177 94 257 136 80 43 352 186 606 319 l461 241 7 94 c8 116 45 269 83
337 32 59 98 121 145 136 18 6 54 11 81 12 l47 1 0 -42z m1346 -1012 l34 -34
0 -371 0 -371 -27 -30 c-53 -60 -156 -49 -196 20 -15 25 -17 68 -17 380 0 377
1 389 52 424 13 9 43 16 71 16 42 0 54 -5 83 -34z m-365 -41 c16 -9 39 -30 49
-48 19 -30 20 -53 20 -383 0 -349 0 -351 -23 -385 -15 -23 -37 -38 -65 -47
-37 -12 -46 -12 -79 5 -20 10 -46 31 -57 46 -20 28 -21 41 -21 385 0 338 1
359 20 386 34 51 101 69 156 41z m-328 -84 c56 -36 55 -29 58 -418 4 -352 3
-362 -17 -390 -11 -15 -37 -36 -57 -46 -33 -17 -42 -17 -79 -5 -28 9 -50 24
-65 47 -23 34 -23 36 -23 386 0 350 0 352 23 386 40 59 106 76 160 40z m-332
-134 c60 -40 59 -37 57 -434 l-3 -361 -24 -26 c-54 -57 -135 -55 -186 5 l-25
31 0 360 c0 398 0 401 64 432 44 22 78 20 117 -7z"/>
<path d="M6131 8576 c-8 -10 -11 -251 -9 -917 l3 -904 28 -57 c60 -122 182
-192 421 -243 l29 -6 -35 -24 c-48 -32 -88 -114 -88 -177 0 -195 235 -297 374
-162 49 48 69 95 69 164 0 66 -26 123 -77 168 -39 34 -38 34 39 48 64 11 176
54 230 89 66 41 129 114 152 173 17 44 18 106 21 934 2 618 -1 894 -8 908 -6
11 -19 20 -28 20 -46 0 -237 -138 -349 -252 -86 -87 -122 -135 -168 -222 l-34
-66 -20 44 c-66 151 -251 340 -450 460 -64 39 -83 43 -100 22z m1069 -951 c0
-465 -3 -845 -7 -845 -5 0 -16 -20 -26 -45 -12 -27 -35 -57 -60 -77 -23 -18
-44 -35 -47 -38 -12 -14 -154 -60 -186 -60 -19 0 -34 -4 -34 -8 0 -4 -18 -8
-40 -9 l-40 -2 0 682 c0 375 3 692 6 704 4 13 10 20 15 17 5 -3 9 0 9 5 0 6
-4 11 -9 11 -9 0 17 101 28 110 3 3 13 19 21 35 22 45 67 103 133 170 47 48
60 57 68 45 8 -12 9 -11 5 5 -4 16 8 30 56 65 33 25 69 48 80 52 10 4 18 12
18 18 0 5 2 10 5 10 2 0 5 -380 5 -845z m-963 808 c13 13 114 -66 109 -87 -2
-6 -1 -8 1 -3 10 16 24 5 18 -14 -6 -18 -4 -20 15 -14 17 5 30 -3 65 -41 24
-26 41 -52 38 -58 -3 -6 -3 -8 2 -4 17 16 116 -134 139 -212 14 -48 16 -138
16 -734 0 -373 -2 -681 -4 -683 -3 -3 -2 -11 1 -19 3 -8 -1 -14 -8 -14 -11 0
-11 -3 1 -10 24 -16 -44 -2 -154 32 -71 22 -95 33 -85 40 10 7 8 8 -7 3 -13
-3 -26 1 -34 10 -7 8 -18 15 -24 15 -6 0 -28 16 -49 36 -72 67 -71 45 -74 969
-3 729 -1 818 12 801 8 -11 18 -16 22 -13z"/>
<path d="M6131 6346 c-8 -10 -11 -251 -9 -917 l3 -904 28 -57 c50 -102 166
-181 326 -222 l88 -22 -32 -37 c-122 -141 -19 -367 166 -367 195 0 295 232
163 375 -13 14 -24 28 -24 30 0 2 19 6 43 10 121 21 254 90 324 169 82 94 77
29 81 1028 2 618 -1 894 -8 908 -14 27 -34 25 -89 -7 -196 -113 -387 -302
-461 -455 l-27 -57 -37 72 c-71 139 -215 286 -401 408 -93 61 -115 68 -134 45z
m128 -146 c8 0 11 -6 7 -16 -3 -8 -2 -12 4 -9 11 7 47 -16 96 -59 25 -22 31
-32 22 -39 -9 -6 -8 -7 3 -4 11 4 35 -14 70 -50 30 -31 47 -53 38 -50 -13 4
-15 1 -12 -14 6 -21 23 -26 23 -6 0 37 91 -115 113 -188 18 -63 27 -1394 9
-1412 -8 -8 -9 -13 -3 -13 6 0 11 -9 11 -21 0 -16 -4 -20 -17 -14 -10 3 -49
12 -88 20 -82 16 -139 38 -128 50 5 4 2 5 -4 1 -17 -10 -93 36 -133 81 -24 26
-35 48 -37 77 -2 22 -6 42 -9 45 -4 3 -4 -7 -2 -22 4 -21 3 -26 -6 -17 -8 8
-12 242 -14 837 -2 455 0 833 3 841 5 13 8 12 23 -2 10 -9 24 -16 31 -16z
m941 10 c0 -12 -7 -20 -17 -20 -17 -1 -17 -1 0 -11 16 -9 17 -58 17 -800 0
-701 -2 -796 -16 -840 -17 -50 -42 -83 -30 -38 6 20 5 21 -4 6 -6 -9 -8 -22
-5 -28 4 -6 -1 -19 -11 -30 -13 -15 -20 -16 -31 -8 -7 7 -17 9 -20 5 -4 -4 -2
-11 6 -15 9 -6 5 -14 -17 -30 -53 -38 -98 -52 -127 -41 -36 14 -44 12 -22 -4
16 -13 15 -15 -14 -25 -25 -8 -30 -8 -26 3 3 7 -1 13 -9 13 -8 0 -13 -6 -10
-13 3 -7 -7 -14 -27 -17 -37 -5 -48 0 -27 13 11 7 9 9 -8 7 -14 -1 -22 -8 -22
-20 0 -10 -4 -15 -10 -12 -7 4 -10 241 -10 678 0 542 3 686 14 747 17 87 25
110 37 110 5 0 9 4 9 9 0 6 10 26 21 46 14 24 24 32 29 25 5 -8 10 -9 14 -2 3
6 0 12 -6 15 -9 2 -5 12 12 30 18 19 28 23 37 15 9 -7 13 -7 13 1 0 6 -4 11
-10 11 -31 0 10 44 143 153 57 47 109 85 120 86 4 1 7 -8 7 -19z"/>
<path d="M6127 4113 c-4 -3 -7 -408 -7 -899 0 -796 2 -899 16 -941 36 -107
127 -189 265 -241 l71 -26 -6 -94 c-14 -189 -71 -339 -158 -417 -56 -50 -139
-85 -201 -85 -24 0 -48 -5 -55 -12 -19 -19 -16 -232 3 -248 23 -19 222 -7 315
20 319 91 523 358 572 748 11 86 14 95 38 105 160 65 231 121 276 219 l29 63
3 887 c2 617 -1 894 -8 908 -17 31 -49 24 -130 -28 -181 -116 -329 -266 -408
-411 l-40 -74 -30 59 c-70 138 -212 286 -388 404 -96 64 -139 81 -157 63z
m189 -195 c4 -6 -2 -8 -17 -4 -20 6 -21 5 -6 -4 9 -6 21 -8 26 -5 6 3 23 -7
40 -22 105 -95 132 -124 125 -134 -4 -8 -3 -9 4 -5 7 4 12 3 12 -3 0 -5 14
-25 31 -43 38 -42 72 -105 63 -120 -4 -7 -3 -8 4 -4 8 5 10 -3 7 -26 -5 -27
-4 -30 5 -13 9 18 10 17 6 -8 -2 -18 1 -27 8 -24 7 3 12 -3 13 -12 5 -42 6
-442 4 -891 l-2 -495 -22 -13 c-21 -13 -21 -13 6 -9 19 3 25 1 18 -6 -19 -19
-243 38 -263 67 -4 6 -8 7 -8 3 0 -14 -91 56 -114 88 -38 53 -45 72 -32 86 8
9 8 10 -3 4 -11 -7 -13 -2 -8 23 4 19 2 32 -3 32 -11 0 -15 1592 -4 1603 7 6
100 -48 110 -65z m884 -740 c1 -741 -1 -818 -17 -870 -16 -57 -27 -70 -36 -45
-2 6 -2 0 0 -15 4 -22 -3 -32 -39 -57 -24 -17 -47 -34 -53 -38 -49 -38 -234
-86 -273 -72 l-22 8 2 695 c2 515 6 698 15 707 6 6 9 17 6 25 -6 15 15 84 26
84 3 0 12 15 20 33 12 29 13 30 22 12 8 -17 8 -16 4 7 -5 28 9 47 19 26 3 -7
3 -3 0 10 -3 12 -1 22 5 22 5 0 12 8 15 18 7 21 131 147 145 147 5 0 21 13 35
28 15 16 31 25 38 21 7 -4 8 -3 4 4 -4 6 4 16 16 23 12 7 29 18 36 26 7 7 17
13 22 13 5 0 9 -356 10 -812z m-606 -1206 c5 -9 161 -7 214 2 26 5 32 3 33
-11 0 -16 2 -15 10 2 8 18 9 17 5 -5 -3 -14 -8 -46 -11 -72 -4 -27 -11 -48
-16 -48 -5 0 -9 -7 -9 -16 0 -9 5 -12 12 -8 7 5 8 3 3 -5 -4 -7 -13 -39 -21
-71 -7 -33 -23 -76 -34 -97 -11 -21 -20 -41 -20 -45 0 -5 -19 -36 -42 -71 -39
-58 -82 -106 -137 -152 -21 -17 -24 -18 -18 -2 4 9 2 17 -4 17 -6 0 -16 -13
-22 -29 -8 -22 -28 -37 -86 -65 -79 -38 -107 -46 -206 -53 -33 -3 -62 -9 -65
-14 -3 -4 -16 -6 -28 -2 -18 4 -22 12 -22 49 0 43 5 49 38 45 8 -1 19 3 26 9
8 5 22 7 31 3 13 -4 16 -3 11 5 -4 7 -2 12 6 12 7 0 26 7 42 15 15 8 32 12 37
9 5 -3 9 1 9 8 1 18 48 51 62 42 7 -4 8 -3 4 5 -4 6 5 28 22 49 16 20 37 56
47 80 11 23 22 42 26 42 4 0 10 17 14 38 3 20 15 67 26 103 17 57 22 91 28
217 1 21 24 31 35 14z"/>
</g>
</svg>
