<?xml version="1.0" standalone="no"?>
<!DOCTYPE svg PUBLIC "-//W3C//DTD SVG 20010904//EN"
 "http://www.w3.org/TR/2001/REC-SVG-20010904/DTD/svg10.dtd">
<svg version="1.0" xmlns="http://www.w3.org/2000/svg"
 width="1200.000000pt" height="1200.000000pt" viewBox="0 0 1200.000000 1200.000000"
 preserveAspectRatio="xMidYMid meet">
<metadata>
Created by potrace 1.16, written by Peter Selinger 2001-2019
</metadata>
<g transform="translate(0.000000,1200.000000) scale(0.100000,-0.100000)"
fill="#000000" stroke="none">
<path d="M0 5725 l0 -5725 5137 0 5137 0 110 74 c826 555 1370 1528 1535 2741
39 285 41 388 41 2131 l0 1700 -1457 2402 -1457 2402 -4523 0 -4523 0 0 -5725z
m4713 2648 c59 -5 67 -8 67 -27 1 -35 35 -100 69 -129 47 -39 131 -61 209 -54
79 8 143 37 195 91 27 28 46 40 61 37 36 -6 249 -69 289 -86 33 -14 37 -18 26
-31 -7 -9 -40 -29 -73 -46 -175 -88 -256 -180 -237 -268 13 -56 21 -60 124
-67 l98 -6 30 29 c40 38 93 125 140 232 21 48 43 88 48 90 5 2 42 -13 83 -34
564 -282 908 -745 1014 -1364 21 -127 30 -485 15 -621 -52 -469 -226 -844
-529 -1146 -305 -303 -742 -515 -1252 -607 -245 -44 -310 -48 -887 -53 l-563
-5 -2 -816 -3 -817 -785 0 -785 0 -3 2840 c-1 1562 0 2846 3 2853 3 9 271 12
1292 12 708 0 1318 -3 1356 -7z m5177 -1830 c0 -1131 -4 -1900 -10 -1998 -25
-398 -99 -690 -242 -965 -288 -554 -849 -910 -1563 -992 -140 -16 -507 -16
-650 0 -476 54 -881 217 -1227 493 -161 128 -442 437 -422 464 5 7 205 199
444 426 239 226 463 439 496 471 l62 60 38 -43 c84 -97 264 -267 337 -317 95
-66 223 -126 308 -147 35 -8 109 -18 164 -22 339 -20 574 159 657 502 l22 90
3 1908 3 1907 790 0 790 0 0 -1837z m-4818 1795 c43 -6 75 -15 71 -21 -13 -22
-91 -47 -148 -47 -73 0 -134 35 -135 79 0 15 58 12 212 -11z"/>
<path d="M3640 6291 l0 -751 418 0 c533 0 644 13 828 99 272 128 404 344 404
661 0 382 -192 618 -580 713 -79 19 -121 21 -577 24 l-493 4 0 -750z"/>
</g>
</svg>
